<svg width="23" height="21" fill="none" xmlns="http://www.w3.org/2000/svg"><path d="M11.61 14.02l3.242 3.687c1.2 1.365 1.8 2.048 2.43 1.88.628-.165.844-1.063 1.275-2.86l2.39-9.968c.665-2.768.997-4.151.259-4.834-.738-.683-2.017-.175-4.575.84L4.765 7.478c-2.046.813-3.07 1.219-3.134 1.917a1 1 0 000 .214c.063.699 1.084 1.108 3.128 1.927.925.37 1.388.557 1.72.912.037.04.073.08.108.124.306.38.436.88.697 1.876l.489 1.867c.253.97.38 1.456.713 1.522.333.066.622-.336 1.2-1.141l1.924-2.675zm0 0l-.317-.33c-.362-.377-.543-.565-.543-.8 0-.233.18-.422.543-.8l3.573-3.723" stroke="#fff" stroke-width="1.5" stroke-linecap="round" stroke-linejoin="round"/><path d="M11.61 14.02l3.242 3.687c1.2 1.365 1.8 2.048 2.43 1.88.628-.165.844-1.063 1.275-2.86l2.39-9.968c.665-2.768.997-4.151.259-4.834-.738-.683-2.017-.175-4.575.84L4.765 7.478c-2.046.813-3.07 1.219-3.134 1.917a1 1 0 000 .214c.063.699 1.084 1.108 3.128 1.927.925.37 1.388.557 1.72.912.037.04.073.08.108.124.306.38.436.88.697 1.876l.489 1.867c.253.97.38 1.456.713 1.522.333.066.622-.336 1.2-1.141l1.924-2.675zm0 0l-.317-.33c-.362-.377-.543-.565-.543-.8 0-.233.18-.422.543-.8l3.573-3.723" stroke="#27272A" stroke-width="1.5" stroke-linecap="round" stroke-linejoin="round"/></svg>